<svg width="323" height="51" viewBox="0 0 323 51" fill="none" xmlns="http://www.w3.org/2000/svg">
<path d="M0.5 0.5H178.5V49.5H0.5V0.5Z" fill="#161513" stroke="#161513"/>
<path d="M42.2099 31.128C41.4739 31.128 40.8286 30.9627 40.2739 30.632C39.7299 30.2907 39.3033 29.8107 38.9939 29.192C38.6953 28.5733 38.5459 27.864 38.5459 27.064V23.736C38.5459 22.936 38.7006 22.232 39.0099 21.624C39.3299 21.0053 39.7726 20.5253 40.3379 20.184C40.9033 19.8427 41.5539 19.672 42.2899 19.672H43.9859C44.6899 19.672 45.3086 19.8213 45.8419 20.12C46.3859 20.4187 46.8073 20.84 47.1059 21.384C47.4046 21.928 47.5539 22.552 47.5539 23.256H46.4019C46.4019 22.4987 46.1779 21.8907 45.7299 21.432C45.2926 20.9627 44.7113 20.728 43.9859 20.728H42.2899C41.5219 20.728 40.9033 21.0053 40.4339 21.56C39.9646 22.104 39.7299 22.8293 39.7299 23.736V27.064C39.7299 27.9707 39.9539 28.7013 40.4019 29.256C40.8606 29.8 41.4633 30.072 42.2099 30.072H43.9379C44.6953 30.072 45.3086 29.8107 45.7779 29.288C46.2473 28.7653 46.4819 28.0773 46.4819 27.224V26.264H43.3779V25.224H47.6339V27.224C47.6339 27.992 47.4793 28.6747 47.1699 29.272C46.8713 29.8587 46.4393 30.3173 45.8739 30.648C45.3193 30.968 44.6739 31.128 43.9379 31.128H42.2099ZM52.3954 31.128C51.4994 31.128 50.7794 30.8507 50.2354 30.296C49.6914 29.7413 49.4194 29.0107 49.4194 28.104V25.912C49.4194 25.0053 49.6914 24.2747 50.2354 23.72C50.7901 23.1653 51.5208 22.888 52.4274 22.888H53.7394C54.6461 22.888 55.3714 23.1653 55.9154 23.72C56.4701 24.2747 56.7474 25.0053 56.7474 25.912V28.104C56.7474 29.0107 56.4701 29.7413 55.9154 30.296C55.3608 30.8507 54.6248 31.128 53.7074 31.128H52.3954ZM53.7074 30.104C54.2834 30.104 54.7421 29.9227 55.0834 29.56C55.4248 29.1867 55.5954 28.7013 55.5954 28.104V25.912C55.5954 25.3147 55.4248 24.8347 55.0834 24.472C54.7421 24.0987 54.2941 23.912 53.7394 23.912H52.4274C51.8728 23.912 51.4248 24.0987 51.0834 24.472C50.7421 24.8347 50.5714 25.3147 50.5714 25.912V28.104C50.5714 28.712 50.7368 29.1973 51.0674 29.56C51.3981 29.9227 51.8408 30.104 52.3954 30.104H53.7074ZM61.9067 31C61.064 31 60.456 30.8187 60.0827 30.456C59.72 30.0933 59.5387 29.496 59.5387 28.664V24.04H58.1307V23.016H59.5387V20.6H60.6907V23.016H62.7707V24.04H60.6907V28.664C60.6907 29.1333 60.7814 29.4693 60.9627 29.672C61.1547 29.8747 61.4694 29.976 61.9067 29.976H62.7707V31H61.9067ZM71.3403 31.128C70.5616 31.128 69.9376 30.9253 69.4683 30.52C69.0096 30.1147 68.7803 29.5707 68.7803 28.888V28.376C68.7803 27.704 69.0203 27.1653 69.5003 26.76C69.9803 26.3547 70.615 26.152 71.4043 26.152H72.4283C72.7803 26.152 73.143 26.2053 73.5163 26.312C73.8896 26.4187 74.2096 26.5627 74.4763 26.744V25.416C74.4763 24.968 74.3376 24.6053 74.0603 24.328C73.783 24.04 73.415 23.896 72.9563 23.896H71.6763C71.2176 23.896 70.8496 24.0027 70.5723 24.216C70.295 24.4293 70.1563 24.712 70.1563 25.064H69.0043C69.0043 24.4133 69.2496 23.8907 69.7403 23.496C70.231 23.0907 70.8763 22.888 71.6763 22.888H72.9563C73.7456 22.888 74.3803 23.1227 74.8603 23.592C75.351 24.0507 75.5963 24.6587 75.5963 25.416V31H74.5083V29.88C74.263 30.264 73.9376 30.568 73.5323 30.792C73.1376 31.016 72.727 31.128 72.3003 31.128H71.3403ZM72.3323 30.12C72.8336 30.12 73.2816 29.9653 73.6763 29.656C74.071 29.3467 74.3376 28.936 74.4763 28.424V27.832C74.263 27.6293 73.9643 27.4693 73.5803 27.352C73.207 27.224 72.823 27.16 72.4283 27.16H71.4043C70.967 27.16 70.6096 27.272 70.3323 27.496C70.0656 27.72 69.9323 28.0133 69.9323 28.376V28.888C69.9323 29.2613 70.0603 29.56 70.3163 29.784C70.5723 30.008 70.9136 30.12 71.3403 30.12H72.3323ZM82.0832 23.016H83.2032V24.104C83.4272 23.7413 83.7205 23.448 84.0832 23.224C84.4565 23 84.8299 22.888 85.2032 22.888H86.3552C87.2085 22.888 87.8965 23.16 88.4192 23.704C88.9525 24.248 89.2192 24.968 89.2192 25.864V27.832C89.2192 28.824 88.9472 29.624 88.4032 30.232C87.8699 30.8293 87.1605 31.128 86.2752 31.128H85.1232C84.7925 31.128 84.4459 31.0373 84.0832 30.856C83.7205 30.664 83.4379 30.4187 83.2352 30.12V34.184H82.0832V23.016ZM86.2432 30.104C86.7979 30.104 87.2405 29.896 87.5712 29.48C87.9019 29.064 88.0672 28.5147 88.0672 27.832V25.864C88.0672 25.2773 87.9072 24.808 87.5872 24.456C87.2672 24.0933 86.8459 23.912 86.3232 23.912H85.2032C84.7552 23.912 84.3499 24.088 83.9872 24.44C83.6245 24.7813 83.3739 25.224 83.2352 25.768V28.168C83.3099 28.7333 83.5285 29.1973 83.8912 29.56C84.2539 29.9227 84.6859 30.104 85.1872 30.104H86.2432ZM91.3332 23.016H92.4532V24.248C92.6665 23.8747 92.9865 23.5707 93.4132 23.336C93.8505 23.1013 94.3039 22.984 94.7732 22.984H95.4772V24.024H94.7732C94.0905 24.024 93.5359 24.2427 93.1092 24.68C92.6932 25.1067 92.4852 25.6773 92.4852 26.392V31H91.3332V23.016ZM99.4267 31.128C98.5307 31.128 97.8107 30.8507 97.2667 30.296C96.7227 29.7413 96.4507 29.0107 96.4507 28.104V25.912C96.4507 25.0053 96.7227 24.2747 97.2667 23.72C97.8214 23.1653 98.552 22.888 99.4587 22.888H100.771C101.677 22.888 102.403 23.1653 102.947 23.72C103.501 24.2747 103.779 25.0053 103.779 25.912V28.104C103.779 29.0107 103.501 29.7413 102.947 30.296C102.392 30.8507 101.656 31.128 100.739 31.128H99.4267ZM100.739 30.104C101.315 30.104 101.773 29.9227 102.115 29.56C102.456 29.1867 102.627 28.7013 102.627 28.104V25.912C102.627 25.3147 102.456 24.8347 102.115 24.472C101.773 24.0987 101.325 23.912 100.771 23.912H99.4587C98.904 23.912 98.456 24.0987 98.1147 24.472C97.7734 24.8347 97.6027 25.3147 97.6027 25.912V28.104C97.6027 28.712 97.768 29.1973 98.0987 29.56C98.4294 29.9227 98.872 30.104 99.4267 30.104H100.739ZM106.856 21.816C106.6 21.816 106.392 21.736 106.232 21.576C106.072 21.416 105.992 21.208 105.992 20.952C105.992 20.696 106.072 20.488 106.232 20.328C106.392 20.168 106.6 20.088 106.856 20.088C107.112 20.088 107.32 20.168 107.48 20.328C107.64 20.488 107.72 20.696 107.72 20.952C107.72 21.208 107.64 21.416 107.48 21.576C107.32 21.736 107.112 21.816 106.856 21.816ZM104.168 33.16H104.728C105.282 33.16 105.677 33.0107 105.912 32.712C106.157 32.4133 106.28 31.9227 106.28 31.24V23.016H107.432V31.16C107.432 32.2373 107.224 33.0107 106.808 33.48C106.392 33.9493 105.698 34.184 104.728 34.184H104.168V33.16ZM112.802 31.128C111.906 31.128 111.186 30.8667 110.642 30.344C110.098 29.8107 109.826 29.1067 109.826 28.232V25.944C109.826 25.0267 110.098 24.2907 110.642 23.736C111.186 23.1707 111.906 22.888 112.802 22.888H114.114C114.967 22.888 115.655 23.16 116.178 23.704C116.7 24.248 116.962 24.968 116.962 25.864V27.272H110.978V28.232C110.978 28.7867 111.143 29.24 111.474 29.592C111.815 29.9333 112.258 30.104 112.802 30.104H114.018C114.551 30.104 114.983 29.96 115.314 29.672C115.644 29.3733 115.81 28.9787 115.81 28.488H116.93C116.93 29.2773 116.663 29.9173 116.13 30.408C115.596 30.888 114.892 31.128 114.018 31.128H112.802ZM115.81 26.28V25.864C115.81 25.2773 115.655 24.808 115.346 24.456C115.036 24.0933 114.626 23.912 114.114 23.912H112.802C112.258 23.912 111.815 24.0987 111.474 24.472C111.143 24.8453 110.978 25.336 110.978 25.944V26.28H115.81ZM121.566 31.128C120.691 31.128 119.987 30.8667 119.454 30.344C118.92 29.8107 118.654 29.1067 118.654 28.232V25.944C118.654 25.0267 118.92 24.2907 119.454 23.736C119.987 23.1707 120.686 22.888 121.55 22.888H122.862C123.683 22.888 124.344 23.1173 124.846 23.576C125.347 24.0347 125.598 24.6373 125.598 25.384H124.478C124.478 24.9467 124.328 24.5947 124.03 24.328C123.742 24.0507 123.352 23.912 122.862 23.912H121.55C121.027 23.912 120.606 24.0987 120.286 24.472C119.966 24.8453 119.806 25.336 119.806 25.944V28.232C119.806 28.7973 119.966 29.2507 120.286 29.592C120.616 29.9333 121.043 30.104 121.566 30.104H122.878C123.379 30.104 123.779 29.928 124.078 29.576C124.387 29.224 124.542 28.7547 124.542 28.168H125.662C125.662 29.0533 125.406 29.768 124.894 30.312C124.382 30.856 123.71 31.128 122.878 31.128H121.566ZM130.625 31C129.783 31 129.175 30.8187 128.801 30.456C128.439 30.0933 128.257 29.496 128.257 28.664V24.04H126.849V23.016H128.257V20.6H129.409V23.016H131.489V24.04H129.409V28.664C129.409 29.1333 129.5 29.4693 129.681 29.672C129.873 29.8747 130.188 29.976 130.625 29.976H131.489V31H130.625ZM136.255 27.512C136.255 27.0747 136.335 26.6907 136.495 26.36C136.665 26.0293 136.868 25.752 137.103 25.528C137.337 25.2933 137.641 25.032 138.015 24.744C138.463 24.4027 138.793 24.104 139.007 23.848C139.22 23.592 139.327 23.288 139.327 22.936V22.36C139.327 21.8693 139.161 21.48 138.831 21.192C138.5 20.8933 138.068 20.744 137.535 20.744H136.159C135.561 20.744 135.081 20.9253 134.719 21.288C134.356 21.64 134.175 22.1093 134.175 22.696H133.023C133.023 21.7893 133.311 21.064 133.887 20.52C134.463 19.9653 135.22 19.688 136.159 19.688H137.535C138.431 19.688 139.151 19.9333 139.695 20.424C140.239 20.9147 140.511 21.56 140.511 22.36V22.936C140.511 23.3093 140.436 23.64 140.287 23.928C140.148 24.2053 139.977 24.4453 139.775 24.648C139.572 24.84 139.3 25.0693 138.959 25.336C138.617 25.6027 138.345 25.832 138.143 26.024C137.951 26.2053 137.785 26.4347 137.647 26.712C137.508 26.9787 137.439 27.288 137.439 27.64V28.424H136.255V27.512ZM136.863 31.16C136.607 31.16 136.399 31.08 136.239 30.92C136.079 30.76 135.999 30.552 135.999 30.296C135.999 30.04 136.079 29.832 136.239 29.672C136.399 29.512 136.607 29.432 136.863 29.432C137.119 29.432 137.327 29.512 137.487 29.672C137.647 29.832 137.727 30.04 137.727 30.296C137.727 30.552 137.647 30.76 137.487 30.92C137.327 31.08 137.119 31.16 136.863 31.16Z" fill="white"/>
<path d="M179.5 0.5H322.5V49.5H179.5V0.5Z" stroke="#161513"/>
<path d="M218.422 31C218.091 31 217.835 30.9093 217.654 30.728C217.472 30.5467 217.382 30.2907 217.382 29.96V19.8H218.566V29.944H224.646V31H218.422ZM228.739 31.128C227.843 31.128 227.123 30.8667 226.579 30.344C226.035 29.8107 225.763 29.1067 225.763 28.232V25.944C225.763 25.0267 226.035 24.2907 226.579 23.736C227.123 23.1707 227.843 22.888 228.739 22.888H230.051C230.905 22.888 231.593 23.16 232.115 23.704C232.638 24.248 232.899 24.968 232.899 25.864V27.272H226.915V28.232C226.915 28.7867 227.081 29.24 227.411 29.592C227.753 29.9333 228.195 30.104 228.739 30.104H229.955C230.489 30.104 230.921 29.96 231.251 29.672C231.582 29.3733 231.747 28.9787 231.747 28.488H232.867C232.867 29.2773 232.601 29.9173 232.067 30.408C231.534 30.888 230.83 31.128 229.955 31.128H228.739ZM231.747 26.28V25.864C231.747 25.2773 231.593 24.808 231.283 24.456C230.974 24.0933 230.563 23.912 230.051 23.912H228.739C228.195 23.912 227.753 24.0987 227.411 24.472C227.081 24.8453 226.915 25.336 226.915 25.944V26.28H231.747ZM237.954 31C237.111 31 236.503 30.8187 236.13 30.456C235.767 30.0933 235.586 29.496 235.586 28.664V24.04H234.178V23.016H235.586V20.6H236.738V23.016H238.818V24.04H236.738V28.664C236.738 29.1333 236.828 29.4693 237.01 29.672C237.202 29.8747 237.516 29.976 237.954 29.976H238.818V31H237.954ZM240.607 19.8H241.759V23.24H240.607V19.8ZM246.136 31.128C245.326 31.128 244.675 30.8987 244.184 30.44C243.694 29.9813 243.448 29.3787 243.448 28.632H244.568C244.568 29.08 244.712 29.4427 245 29.72C245.288 29.9973 245.667 30.136 246.136 30.136H247.528C247.987 30.136 248.36 30.0453 248.648 29.864C248.936 29.672 249.08 29.4267 249.08 29.128V28.584C249.08 28.3813 249 28.2053 248.84 28.056C248.68 27.896 248.472 27.7893 248.216 27.736L245.448 27.256C244.894 27.16 244.446 26.952 244.104 26.632C243.774 26.3013 243.608 25.9173 243.608 25.48V24.952C243.608 24.3333 243.843 23.8373 244.312 23.464C244.782 23.08 245.4 22.888 246.168 22.888H247.544C248.291 22.888 248.894 23.1013 249.352 23.528C249.811 23.944 250.04 24.4987 250.04 25.192H248.92C248.91 24.7973 248.776 24.4827 248.52 24.248C248.275 24.0027 247.95 23.88 247.544 23.88H246.168C245.742 23.88 245.4 23.9813 245.144 24.184C244.888 24.376 244.76 24.632 244.76 24.952V25.416C244.76 25.6187 244.846 25.8 245.016 25.96C245.198 26.12 245.427 26.2213 245.704 26.264L248.456 26.744C248.99 26.84 249.416 27.048 249.736 27.368C250.067 27.688 250.232 28.072 250.232 28.52V29.16C250.232 29.7467 249.982 30.2213 249.48 30.584C248.99 30.9467 248.339 31.128 247.528 31.128H246.136ZM259.469 31C258.627 31 258.019 30.8187 257.645 30.456C257.283 30.0933 257.101 29.496 257.101 28.664V24.04H255.693V23.016H257.101V20.6H258.253V23.016H260.333V24.04H258.253V28.664C258.253 29.1333 258.344 29.4693 258.525 29.672C258.717 29.8747 259.032 29.976 259.469 29.976H260.333V31H259.469ZM264.559 31.128C263.78 31.128 263.156 30.9253 262.687 30.52C262.228 30.1147 261.999 29.5707 261.999 28.888V28.376C261.999 27.704 262.239 27.1653 262.719 26.76C263.199 26.3547 263.834 26.152 264.623 26.152H265.647C265.999 26.152 266.362 26.2053 266.735 26.312C267.108 26.4187 267.428 26.5627 267.695 26.744V25.416C267.695 24.968 267.556 24.6053 267.279 24.328C267.002 24.04 266.634 23.896 266.175 23.896H264.895C264.436 23.896 264.068 24.0027 263.791 24.216C263.514 24.4293 263.375 24.712 263.375 25.064H262.223C262.223 24.4133 262.468 23.8907 262.959 23.496C263.45 23.0907 264.095 22.888 264.895 22.888H266.175C266.964 22.888 267.599 23.1227 268.079 23.592C268.57 24.0507 268.815 24.6587 268.815 25.416V31H267.727V29.88C267.482 30.264 267.156 30.568 266.751 30.792C266.356 31.016 265.946 31.128 265.519 31.128H264.559ZM265.551 30.12C266.052 30.12 266.5 29.9653 266.895 29.656C267.29 29.3467 267.556 28.936 267.695 28.424V27.832C267.482 27.6293 267.183 27.4693 266.799 27.352C266.426 27.224 266.042 27.16 265.647 27.16H264.623C264.186 27.16 263.828 27.272 263.551 27.496C263.284 27.72 263.151 28.0133 263.151 28.376V28.888C263.151 29.2613 263.279 29.56 263.535 29.784C263.791 30.008 264.132 30.12 264.559 30.12H265.551ZM273.354 31C272.564 31 271.999 30.8347 271.658 30.504C271.316 30.1627 271.146 29.6027 271.146 28.824V19.8H272.298V28.824C272.298 29.2293 272.378 29.5227 272.538 29.704C272.708 29.8853 272.98 29.976 273.354 29.976H273.898V31H273.354ZM280.819 31L277.683 27.224L276.579 28.328V31H275.427V19.8H276.579V26.92L280.531 23.016H281.939L278.483 26.44L282.195 31H280.819ZM284.143 31.16C283.887 31.16 283.679 31.08 283.519 30.92C283.359 30.76 283.279 30.552 283.279 30.296C283.279 30.04 283.359 29.832 283.519 29.672C283.679 29.512 283.887 29.432 284.143 29.432C284.399 29.432 284.607 29.512 284.767 29.672C284.927 29.832 285.007 30.04 285.007 30.296C285.007 30.552 284.927 30.76 284.767 30.92C284.607 31.08 284.399 31.16 284.143 31.16Z" fill="#161513"/>
</svg>
